<?xml version="1.0" encoding="UTF-8" standalone="no"?>
<!DOCTYPE svg PUBLIC "-//W3C//DTD SVG 1.1//EN"
 "http://www.w3.org/Graphics/SVG/1.1/DTD/svg11.dtd">
<!-- Generated by graphviz version 2.43.0 (0)
 -->
<!-- Title: %3 Pages: 1 -->
<svg width="1812pt" height="238pt"
 viewBox="0.00 0.00 1812.00 237.74" xmlns="http://www.w3.org/2000/svg" xmlns:xlink="http://www.w3.org/1999/xlink">
<g id="graph0" class="graph" transform="scale(1 1) rotate(0) translate(36 201.74)">
<title>%3</title>
<polygon fill="dimgray" stroke="transparent" points="-36,36 -36,-201.74 1776,-201.74 1776,36 -36,36"/>
<text text-anchor="middle" x="870" y="-150.54" font-family="Helvetica,sans-Serif" font-size="14.00">Sweep&#39;s Plan &amp; Progress</text>
<!-- start -->
<g id="node1" class="node">
<title>start</title>
</g>
<!-- e38a59ff&#45;5c03&#45;4498&#45;82e3&#45;62cc376690ac -->
<g id="node3" class="node">
<title>e38a59ff&#45;5c03&#45;4498&#45;82e3&#45;62cc376690ac</title>
<ellipse fill="yellow" stroke="black" cx="318.5" cy="-99.87" rx="265.74" ry="26.74"/>
<text text-anchor="middle" x="318.5" y="-103.67" font-family="Helvetica,sans-Serif" font-size="14.00">⋯ Create</text>
<text text-anchor="middle" x="318.5" y="-88.67" font-family="Helvetica,sans-Serif" font-size="14.00">docx&#45;core/src/documents/elements/page_number.rs</text>
</g>
<!-- start&#45;&gt;e38a59ff&#45;5c03&#45;4498&#45;82e3&#45;62cc376690ac -->
<g id="edge6" class="edge">
<title>start&#45;&gt;e38a59ff&#45;5c03&#45;4498&#45;82e3&#45;62cc376690ac</title>
<path fill="none" stroke="black" d="M1.02,-99.87C3.98,-99.87 19.51,-99.87 42.24,-99.87"/>
<polygon fill="black" stroke="black" points="42.4,-103.37 52.4,-99.87 42.4,-96.37 42.4,-103.37"/>
<text text-anchor="middle" x="26.81" y="-106.67" font-family="Helvetica,sans-Serif" font-size="14.00">Start</text>
</g>
<!-- end -->
<g id="node2" class="node">
<title>end</title>
</g>
<!-- be23e8b6&#45;4bce&#45;4775&#45;be29&#45;3e5bf06e8724 -->
<g id="node4" class="node">
<title>be23e8b6&#45;4bce&#45;4775&#45;be29&#45;3e5bf06e8724</title>
<ellipse fill="white" stroke="black" cx="881.5" cy="-99.87" rx="250.13" ry="26.74"/>
<text text-anchor="middle" x="881.5" y="-103.67" font-family="Helvetica,sans-Serif" font-size="14.00">▶ Modify</text>
<text text-anchor="middle" x="881.5" y="-88.67" font-family="Helvetica,sans-Serif" font-size="14.00">docx&#45;core/src/documents/elements/paragraph.rs</text>
</g>
<!-- e38a59ff&#45;5c03&#45;4498&#45;82e3&#45;62cc376690ac&#45;&gt;be23e8b6&#45;4bce&#45;4775&#45;be29&#45;3e5bf06e8724 -->
<g id="edge2" class="edge">
<title>e38a59ff&#45;5c03&#45;4498&#45;82e3&#45;62cc376690ac&#45;&gt;be23e8b6&#45;4bce&#45;4775&#45;be29&#45;3e5bf06e8724</title>
<path fill="none" stroke="black" d="M584.61,-99.87C596.69,-99.87 608.77,-99.87 620.85,-99.87"/>
<polygon fill="black" stroke="black" points="621,-103.37 631,-99.87 621,-96.37 621,-103.37"/>
</g>
<!-- b6a791d0&#45;6764&#45;443f&#45;93e2&#45;eefafcb7ac9f -->
<g id="node6" class="node">
<title>b6a791d0&#45;6764&#45;443f&#45;93e2&#45;eefafcb7ac9f</title>
<polygon fill="white" stroke="black" points="591,-36 24,-36 24,0 591,0 591,-36"/>
<text text-anchor="middle" x="307.5" y="-14.3" font-family="Helvetica,sans-Serif" font-size="14.00">▶ Run GitHub Actions for `docx&#45;core/src/documents/elements/page_number.rs`</text>
</g>
<!-- e38a59ff&#45;5c03&#45;4498&#45;82e3&#45;62cc376690ac&#45;&gt;b6a791d0&#45;6764&#45;443f&#45;93e2&#45;eefafcb7ac9f -->
<g id="edge1" class="edge">
<title>e38a59ff&#45;5c03&#45;4498&#45;82e3&#45;62cc376690ac&#45;&gt;b6a791d0&#45;6764&#45;443f&#45;93e2&#45;eefafcb7ac9f</title>
<path fill="none" stroke="black" stroke-dasharray="5,2" d="M314.9,-72.72C313.72,-64.18 312.41,-54.68 311.23,-46.08"/>
<polygon fill="black" stroke="black" points="314.69,-45.58 309.86,-36.15 307.76,-46.53 314.69,-45.58"/>
</g>
<!-- d670b7a6&#45;4d8b&#45;44de&#45;a326&#45;3f29046a4068 -->
<g id="node5" class="node">
<title>d670b7a6&#45;4d8b&#45;44de&#45;a326&#45;3f29046a4068</title>
<ellipse fill="white" stroke="black" cx="1431.5" cy="-99.87" rx="250.13" ry="26.74"/>
<text text-anchor="middle" x="1431.5" y="-103.67" font-family="Helvetica,sans-Serif" font-size="14.00">▶ Modify</text>
<text text-anchor="middle" x="1431.5" y="-88.67" font-family="Helvetica,sans-Serif" font-size="14.00">docx&#45;core/src/documents/elements/paragraph.rs</text>
</g>
<!-- be23e8b6&#45;4bce&#45;4775&#45;be29&#45;3e5bf06e8724&#45;&gt;d670b7a6&#45;4d8b&#45;44de&#45;a326&#45;3f29046a4068 -->
<g id="edge4" class="edge">
<title>be23e8b6&#45;4bce&#45;4775&#45;be29&#45;3e5bf06e8724&#45;&gt;d670b7a6&#45;4d8b&#45;44de&#45;a326&#45;3f29046a4068</title>
<path fill="none" stroke="black" d="M1132.06,-99.87C1144.91,-99.87 1157.75,-99.87 1170.59,-99.87"/>
<polygon fill="black" stroke="black" points="1170.9,-103.37 1180.9,-99.87 1170.9,-96.37 1170.9,-103.37"/>
</g>
<!-- a0ca2773&#45;d18e&#45;4923&#45;ae51&#45;c5be37befa06 -->
<g id="node7" class="node">
<title>a0ca2773&#45;d18e&#45;4923&#45;ae51&#45;c5be37befa06</title>
<polygon fill="white" stroke="black" points="1154,-36 609,-36 609,0 1154,0 1154,-36"/>
<text text-anchor="middle" x="881.5" y="-14.3" font-family="Helvetica,sans-Serif" font-size="14.00">▶ Run GitHub Actions for `docx&#45;core/src/documents/elements/paragraph.rs`</text>
</g>
<!-- be23e8b6&#45;4bce&#45;4775&#45;be29&#45;3e5bf06e8724&#45;&gt;a0ca2773&#45;d18e&#45;4923&#45;ae51&#45;c5be37befa06 -->
<g id="edge3" class="edge">
<title>be23e8b6&#45;4bce&#45;4775&#45;be29&#45;3e5bf06e8724&#45;&gt;a0ca2773&#45;d18e&#45;4923&#45;ae51&#45;c5be37befa06</title>
<path fill="none" stroke="black" stroke-dasharray="5,2" d="M881.5,-72.72C881.5,-64.27 881.5,-54.89 881.5,-46.36"/>
<polygon fill="black" stroke="black" points="885,-46.15 881.5,-36.15 878,-46.15 885,-46.15"/>
</g>
<!-- d670b7a6&#45;4d8b&#45;44de&#45;a326&#45;3f29046a4068&#45;&gt;end -->
<g id="edge7" class="edge">
<title>d670b7a6&#45;4d8b&#45;44de&#45;a326&#45;3f29046a4068&#45;&gt;end</title>
<path fill="none" stroke="black" d="M1681.93,-99.87C1702.18,-99.87 1718.7,-99.87 1728.77,-99.87"/>
<polygon fill="black" stroke="black" points="1728.89,-103.37 1738.89,-99.87 1728.89,-96.37 1728.89,-103.37"/>
<text text-anchor="middle" x="1710.41" y="-106.67" font-family="Helvetica,sans-Serif" font-size="14.00">Finish</text>
</g>
<!-- d1b3bd8f&#45;a39e&#45;493a&#45;b19e&#45;d5785ee585d8 -->
<g id="node8" class="node">
<title>d1b3bd8f&#45;a39e&#45;493a&#45;b19e&#45;d5785ee585d8</title>
<polygon fill="white" stroke="black" points="1717,-36 1172,-36 1172,0 1717,0 1717,-36"/>
<text text-anchor="middle" x="1444.5" y="-14.3" font-family="Helvetica,sans-Serif" font-size="14.00">▶ Run GitHub Actions for `docx&#45;core/src/documents/elements/paragraph.rs`</text>
</g>
<!-- d670b7a6&#45;4d8b&#45;44de&#45;a326&#45;3f29046a4068&#45;&gt;d1b3bd8f&#45;a39e&#45;493a&#45;b19e&#45;d5785ee585d8 -->
<g id="edge5" class="edge">
<title>d670b7a6&#45;4d8b&#45;44de&#45;a326&#45;3f29046a4068&#45;&gt;d1b3bd8f&#45;a39e&#45;493a&#45;b19e&#45;d5785ee585d8</title>
<path fill="none" stroke="black" stroke-dasharray="5,2" d="M1435.76,-72.72C1437.15,-64.18 1438.69,-54.68 1440.09,-46.08"/>
<polygon fill="black" stroke="black" points="1443.56,-46.58 1441.71,-36.15 1436.65,-45.45 1443.56,-46.58"/>
</g>
</g>
</svg>
